<mxfile host="app.diagrams.net" agent="Mozilla/5.0 (X11; Linux x86_64) AppleWebKit/537.36 (KHTML, like Gecko) Chrome/134.0.0.0 Safari/537.36" version="26.0.15">
  <diagram id="C5RBs43oDa-KdzZeNtuy" name="Page-1">
    <mxGraphModel dx="952" dy="451" grid="1" gridSize="10" guides="1" tooltips="1" connect="1" arrows="1" fold="1" page="1" pageScale="1" pageWidth="827" pageHeight="1169" math="0" shadow="0">
      <root>
        <mxCell id="WIyWlLk6GJQsqaUBKTNV-0" />
        <mxCell id="WIyWlLk6GJQsqaUBKTNV-1" parent="WIyWlLk6GJQsqaUBKTNV-0" />
        <mxCell id="bnv-jf4RFWucebDONJIt-28" style="edgeStyle=orthogonalEdgeStyle;rounded=0;orthogonalLoop=1;jettySize=auto;html=1;entryX=0;entryY=0.5;entryDx=0;entryDy=0;" edge="1" parent="WIyWlLk6GJQsqaUBKTNV-1" source="bnv-jf4RFWucebDONJIt-11" target="bnv-jf4RFWucebDONJIt-16">
          <mxGeometry relative="1" as="geometry" />
        </mxCell>
        <mxCell id="bnv-jf4RFWucebDONJIt-11" value="pve_lxc_up or down" style="ellipse;whiteSpace=wrap;html=1;align=center;" vertex="1" parent="WIyWlLk6GJQsqaUBKTNV-1">
          <mxGeometry x="20" y="150" width="100" height="40" as="geometry" />
        </mxCell>
        <mxCell id="bnv-jf4RFWucebDONJIt-15" value="metric.id (lxc/107)" style="swimlane;fontStyle=0;childLayout=stackLayout;horizontal=1;startSize=26;horizontalStack=0;resizeParent=1;resizeParentMax=0;resizeLast=0;collapsible=1;marginBottom=0;align=center;fontSize=14;" vertex="1" parent="WIyWlLk6GJQsqaUBKTNV-1">
          <mxGeometry x="190" y="170" width="160" height="146" as="geometry">
            <mxRectangle x="190" y="170" width="150" height="30" as="alternateBounds" />
          </mxGeometry>
        </mxCell>
        <mxCell id="bnv-jf4RFWucebDONJIt-16" value="status" style="text;strokeColor=none;fillColor=none;spacingLeft=4;spacingRight=4;overflow=hidden;rotatable=0;points=[[0,0.5],[1,0.5]];portConstraint=eastwest;fontSize=12;whiteSpace=wrap;html=1;" vertex="1" parent="bnv-jf4RFWucebDONJIt-15">
          <mxGeometry y="26" width="160" height="30" as="geometry" />
        </mxCell>
        <mxCell id="bnv-jf4RFWucebDONJIt-17" value="cpu" style="text;strokeColor=none;fillColor=none;spacingLeft=4;spacingRight=4;overflow=hidden;rotatable=0;points=[[0,0.5],[1,0.5]];portConstraint=eastwest;fontSize=12;whiteSpace=wrap;html=1;" vertex="1" parent="bnv-jf4RFWucebDONJIt-15">
          <mxGeometry y="56" width="160" height="30" as="geometry" />
        </mxCell>
        <mxCell id="bnv-jf4RFWucebDONJIt-18" value="ram" style="text;strokeColor=none;fillColor=none;spacingLeft=4;spacingRight=4;overflow=hidden;rotatable=0;points=[[0,0.5],[1,0.5]];portConstraint=eastwest;fontSize=12;whiteSpace=wrap;html=1;" vertex="1" parent="bnv-jf4RFWucebDONJIt-15">
          <mxGeometry y="86" width="160" height="30" as="geometry" />
        </mxCell>
        <mxCell id="bnv-jf4RFWucebDONJIt-19" value="bootdisk" style="text;strokeColor=none;fillColor=none;spacingLeft=4;spacingRight=4;overflow=hidden;rotatable=0;points=[[0,0.5],[1,0.5]];portConstraint=eastwest;fontSize=12;whiteSpace=wrap;html=1;" vertex="1" parent="bnv-jf4RFWucebDONJIt-15">
          <mxGeometry y="116" width="160" height="30" as="geometry" />
        </mxCell>
        <mxCell id="bnv-jf4RFWucebDONJIt-22" value="" style="edgeStyle=entityRelationEdgeStyle;fontSize=12;html=1;endArrow=ERmany;startArrow=ERmany;rounded=0;entryX=0;entryY=0;entryDx=0;entryDy=0;exitX=1;exitY=0.5;exitDx=0;exitDy=0;" edge="1" parent="WIyWlLk6GJQsqaUBKTNV-1" source="bnv-jf4RFWucebDONJIt-11" target="bnv-jf4RFWucebDONJIt-15">
          <mxGeometry width="100" height="100" relative="1" as="geometry">
            <mxPoint x="40" y="306" as="sourcePoint" />
            <mxPoint x="140" y="206" as="targetPoint" />
          </mxGeometry>
        </mxCell>
        <mxCell id="bnv-jf4RFWucebDONJIt-29" style="edgeStyle=orthogonalEdgeStyle;rounded=0;orthogonalLoop=1;jettySize=auto;html=1;entryX=0;entryY=0.5;entryDx=0;entryDy=0;" edge="1" parent="WIyWlLk6GJQsqaUBKTNV-1" source="bnv-jf4RFWucebDONJIt-24" target="bnv-jf4RFWucebDONJIt-17">
          <mxGeometry relative="1" as="geometry">
            <Array as="points">
              <mxPoint x="190" y="240" />
            </Array>
          </mxGeometry>
        </mxCell>
        <mxCell id="bnv-jf4RFWucebDONJIt-30" style="edgeStyle=orthogonalEdgeStyle;rounded=0;orthogonalLoop=1;jettySize=auto;html=1;entryX=0;entryY=0.5;entryDx=0;entryDy=0;" edge="1" parent="WIyWlLk6GJQsqaUBKTNV-1" source="bnv-jf4RFWucebDONJIt-24" target="bnv-jf4RFWucebDONJIt-18">
          <mxGeometry relative="1" as="geometry">
            <Array as="points">
              <mxPoint x="70" y="300" />
              <mxPoint x="155" y="300" />
              <mxPoint x="155" y="271" />
            </Array>
          </mxGeometry>
        </mxCell>
        <mxCell id="bnv-jf4RFWucebDONJIt-31" style="edgeStyle=orthogonalEdgeStyle;rounded=0;orthogonalLoop=1;jettySize=auto;html=1;entryX=0;entryY=0.5;entryDx=0;entryDy=0;" edge="1" parent="WIyWlLk6GJQsqaUBKTNV-1" source="bnv-jf4RFWucebDONJIt-24" target="bnv-jf4RFWucebDONJIt-19">
          <mxGeometry relative="1" as="geometry">
            <Array as="points">
              <mxPoint x="70" y="301" />
            </Array>
          </mxGeometry>
        </mxCell>
        <mxCell id="bnv-jf4RFWucebDONJIt-24" value="queries" style="ellipse;whiteSpace=wrap;html=1;align=center;fontStyle=4;" vertex="1" parent="WIyWlLk6GJQsqaUBKTNV-1">
          <mxGeometry x="20" y="221" width="100" height="40" as="geometry" />
        </mxCell>
        <mxCell id="bnv-jf4RFWucebDONJIt-32" value="Machines" style="swimlane;childLayout=stackLayout;horizontal=1;startSize=50;horizontalStack=0;rounded=1;fontSize=14;fontStyle=0;strokeWidth=2;resizeParent=0;resizeLast=1;shadow=0;dashed=0;align=center;arcSize=4;whiteSpace=wrap;html=1;" vertex="1" parent="WIyWlLk6GJQsqaUBKTNV-1">
          <mxGeometry x="440" y="170" width="160" height="120" as="geometry" />
        </mxCell>
        <mxCell id="bnv-jf4RFWucebDONJIt-33" value="+Lxc/107&lt;br&gt;+Lxc/110&lt;br&gt;+qemu/104" style="align=left;strokeColor=none;fillColor=none;spacingLeft=4;spacingRight=4;fontSize=12;verticalAlign=top;resizable=0;rotatable=0;part=1;html=1;whiteSpace=wrap;" vertex="1" parent="bnv-jf4RFWucebDONJIt-32">
          <mxGeometry y="50" width="160" height="70" as="geometry" />
        </mxCell>
        <mxCell id="bnv-jf4RFWucebDONJIt-35" value="" style="edgeStyle=entityRelationEdgeStyle;fontSize=12;html=1;endArrow=ERmany;rounded=0;entryX=1;entryY=0;entryDx=0;entryDy=0;exitX=0;exitY=0;exitDx=0;exitDy=0;" edge="1" parent="WIyWlLk6GJQsqaUBKTNV-1" source="bnv-jf4RFWucebDONJIt-32" target="bnv-jf4RFWucebDONJIt-15">
          <mxGeometry width="100" height="100" relative="1" as="geometry">
            <mxPoint x="310" y="416" as="sourcePoint" />
            <mxPoint x="410" y="316" as="targetPoint" />
          </mxGeometry>
        </mxCell>
        <mxCell id="bnv-jf4RFWucebDONJIt-36" value="&lt;h1 style=&quot;margin-top: 0px;&quot;&gt;Example usage&lt;/h1&gt;&lt;p&gt;machines[i].attribute&lt;/p&gt;&lt;p&gt;machines[1].cpu&lt;/p&gt;" style="text;html=1;whiteSpace=wrap;overflow=hidden;rounded=0;" vertex="1" parent="WIyWlLk6GJQsqaUBKTNV-1">
          <mxGeometry x="370" y="316" width="180" height="120" as="geometry" />
        </mxCell>
        <mxCell id="bnv-jf4RFWucebDONJIt-42" value="Object" style="text;html=1;align=center;verticalAlign=middle;whiteSpace=wrap;rounded=0;" vertex="1" parent="WIyWlLk6GJQsqaUBKTNV-1">
          <mxGeometry x="240" y="140" width="60" height="30" as="geometry" />
        </mxCell>
        <mxCell id="bnv-jf4RFWucebDONJIt-43" value="Array" style="text;html=1;align=center;verticalAlign=middle;whiteSpace=wrap;rounded=0;" vertex="1" parent="WIyWlLk6GJQsqaUBKTNV-1">
          <mxGeometry x="490" y="140" width="60" height="30" as="geometry" />
        </mxCell>
      </root>
    </mxGraphModel>
  </diagram>
</mxfile>
